<svg id="Layer_1" enable-background="new 0 0 24 24" viewBox="0 0 24 24" xmlns="http://www.w3.org/2000/svg"><path d="m21.1 12h-2c-.6 0-1 .4-1 1s.4 1 1 1v2h-1.2c.1-.3.2-.7.2-1 0-1.7-1.3-3-3-3-1.1 0-2.1.6-2.6 1.5-.3.5-.1 1.1.4 1.4s1.1.1 1.4-.4c.2-.3.5-.5.9-.5.6 0 1 .4 1 1s-.4 1-1 1-1 .4-1 1 .4 1 1 1 1 .4 1 1-.4 1-1 1c-.4 0-.7-.2-.9-.5-.3-.5-.9-.6-1.4-.4s-.6.9-.4 1.4c.8 1.4 2.7 1.9 4.1 1.1.9-.5 1.5-1.5 1.5-2.6 0-.3-.1-.7-.2-1h1.2v3c0 .6.4 1 1 1s1-.4 1-1v-7c.6 0 1-.4 1-1s-.5-1-1-1zm-7-5h1c.6 0 1 .4 1 1v1c0 .6.4 1 1 1s1-.4 1-1v-1c0-1.7-1.3-3-3-3h-1c-.6 0-1 .4-1 1s.4 1 1 1zm-5 4.2c.1.5.7.9 1.2.7s.9-.7.7-1.2l-1.8-7c-.2-1.2-1.5-1.9-2.7-1.6-.8.2-1.5.8-1.7 1.6l-1.8 7c0 .6.3 1.1.8 1.3.5.1 1.1-.2 1.2-.7l.6-2.3h2.9zm-3-4.2.7-2.8c0-.1.2-.2.4-.2.1 0 .1.1.2.2l.6 2.8zm4 9h-1c-.6 0-1-.4-1-1v-1c0-.6-.4-1-1-1s-1 .4-1 1v1c0 1.7 1.3 3 3 3h1c.6 0 1-.4 1-1s-.5-1-1-1z" fill="rgb(0,0,0)"/></svg>